<svg height="512pt" viewBox="0 0 512 512" width="512pt" xmlns="http://www.w3.org/2000/svg"><path d="m338.601562 104.617188-58.539062 21.335937c-3.390625 1.203125-5.648438 4.421875-5.628906 8.019531v73.046875c.015625 2.261719.902344 4.429688 2.472656 6.058594l39.339844 39.421875c3.195312 3.171875 4.988281 7.488281 4.988281 11.992188 0 4.5-1.792969 8.816406-4.988281 11.988281l-60.246094-60.246094h-5.886719l-9.132812 9.214844-51.199219 51.117187c-3.167969 3.234375-7.503906 5.054688-12.03125 5.054688s-8.863281-1.820313-12.03125-5.054688h-.085938v-.085937c-3.195312-3.171875-4.992187-7.488281-4.992187-11.988281 0-4.503907 1.796875-8.820313 4.992187-11.992188l45.226563-45.226562c1.570313-1.625 2.457031-3.796876 2.472656-6.058594v-67.15625c.019531-3.597656-2.238281-6.816406-5.628906-8.019532l-58.457031-21.335937c-8.855469-3.207031-13.4375-12.984375-10.238282-21.84375h.085938c1.027344-2.945313 2.898438-5.527344 5.375-7.425781 4.597656-3.804688 10.871094-4.875 16.46875-2.816406l49.664062 18.175781c5.636719 2.039062 11.585938 3.082031 17.578126 3.074219h10.753906l4.949218 7.421874 12.117188 18.175782 17.066406-25.597656h10.496094c5.964844.011718 11.890625-1.027344 17.492188-3.074219l42.328124-15.445313c2.476563 1.898438 4.34375 4.480469 5.375 7.425782h.085938c3.199219 8.859374-1.382812 18.636718-10.242188 21.84375zm0 0" fill="#2296f3"/><path d="m503.464844 332.800781c0 37.714844-110.761719 68.265625-247.464844 68.265625-4.265625 0-8.535156 0-12.714844-.085937h-.171875c-130.730469-1.875-234.578125-31.65625-234.578125-68.179688 0-28.503906 63.144532-52.90625 153-63.0625l38.484375-3.414062c.855469-.085938 1.792969-.085938 2.648438-.167969l8.191406-.511719c.597656 0 1.195313-.085937 1.792969-.085937 9.898437-.511719 20.136718-.769532 30.460937-.941406h1.792969c3.667969-.082032 7.339844-.082032 11.09375-.082032 17.066406 0 33.707031.511719 49.664062 1.363282l39.082032 3.242187c4.609375.511719 9.132812 1.023437 13.484375 1.621094 85.671875 10.496093 145.234375 34.304687 145.234375 62.039062zm0 0" fill="#37474f"/><path d="m477.867188 332.800781c0 36.523438-103.851563 66.304688-234.582032 68.179688h-.171875c-130.730469-1.875-234.578125-31.65625-234.578125-68.179688 0-28.503906 63.144532-52.90625 153-63.0625l38.484375-3.414062c.855469-.085938 1.792969-.085938 2.648438-.167969l8.191406-.511719c.597656 0 1.195313-.085937 1.792969-.085937 9.898437-.511719 20.136718-.769532 30.460937-.941406h1.792969c12.03125.257812 23.722656.683593 35.15625 1.28125l39.085938 3.242187c4.605468.511719 9.128906 1.023437 13.480468 1.621094 85.675782 10.496093 145.238282 34.304687 145.238282 62.039062zm0 0" fill="#607d8b"/><path d="m305.75 265.984375-.085938-.085937c-15.957031-.851563-32.597656-1.363282-49.664062-1.363282-14.847656 0-29.355469.339844-43.347656 1.023438-.597656 0-1.195313.085937-1.792969.085937l-8.191406.511719c-.855469.082031-1.792969.082031-2.648438.167969l-38.484375 3.5c-70.484375 8.363281-118.867187 25.769531-118.867187 45.910156 0 28.246094 95.488281 51.199219 213.332031 51.199219s213.332031-22.953125 213.332031-51.199219c0-19.371094-44.882812-36.269531-111.101562-44.972656-4.351563-.597657-8.875-1.109375-13.484375-1.621094zm0 0" fill="#37474f"/><path d="m281.601562 34.132812c0 14.140626-11.464843 25.601563-25.601562 25.601563s-25.601562-11.460937-25.601562-25.601563c0-14.136718 11.464843-25.597656 25.601562-25.597656s25.601562 11.460938 25.601562 25.597656zm0 0" fill="#ffe0b2"/><path d="m362.835938 104.617188-58.539063 21.335937c-3.390625 1.203125-5.648437 4.421875-5.628906 8.019531v73.046875c.015625 2.261719.902343 4.429688 2.472656 6.058594l39.339844 39.421875c4.851562 4.882812 6.296875 12.195312 3.667969 18.554688-2.628907 6.359374-8.820313 10.515624-15.699219 10.546874-4.546875-.011718-8.902344-1.824218-12.117188-5.035156h-.085937v-.085937c3.195312-3.171875 4.988281-7.488281 4.988281-11.988281 0-4.503907-1.792969-8.820313-4.988281-11.992188l-39.339844-39.421875c-1.570312-1.628906-2.457031-3.796875-2.472656-6.058594v-73.046875c-.019532-3.597656 2.238281-6.816406 5.628906-8.019531l58.539062-21.335937c8.859376-3.207032 13.441407-12.984376 10.242188-21.84375h-.085938c-1.03125-2.945313-2.898437-5.527344-5.375-7.425782l7.765626-2.8125c4.253906-1.558594 8.953124-1.355468 13.054687.566406 4.101563 1.925782 7.265625 5.40625 8.789063 9.671876h.085937c3.199219 8.859374-1.382813 18.636718-10.242187 21.84375zm0 0" fill="#1566c0"/><path d="m340.480469 276.566406c-3.183594 3.210938-7.511719 5.019532-12.03125 5.035156-4.546875-.011718-8.902344-1.824218-12.117188-5.035156h-.085937v-.085937c3.195312-3.171875 4.988281-7.488281 4.988281-11.988281 0-4.503907-1.792969-8.820313-4.988281-11.992188l-39.339844-39.421875c-1.570312-1.628906-2.457031-3.796875-2.472656-6.058594v-10.753906h24.234375v10.753906c.015625 2.261719.902343 4.429688 2.472656 6.058594l39.339844 39.421875c3.195312 3.191406 4.992187 7.519531 4.992187 12.035156 0 4.511719-1.796875 8.839844-4.992187 12.03125zm0 0" fill="#c52828"/><path d="m316.246094 276.480469-60.246094-60.246094h-5.886719l-9.132812 9.214844-51.199219 51.117187c-3.167969 3.234375-7.503906 5.054688-12.03125 5.054688s-8.863281-1.820313-12.03125-5.054688h-.085938v-.085937c-3.195312-3.171875-4.992187-7.488281-4.992187-11.988281 0-4.503907 1.796875-8.820313 4.992187-11.992188l45.226563-45.226562c1.570313-1.625 2.457031-3.796876 2.472656-6.058594v-4.949219h61.101563v10.753906c.015625 2.261719.902344 4.429688 2.472656 6.058594l39.339844 39.421875c3.195312 3.171875 4.988281 7.488281 4.988281 11.992188 0 4.5-1.792969 8.816406-4.988281 11.988281zm0 0" fill="#f44335"/><path d="m359.390625 262.304688c-1.835937-.246094-3.796875-.449219-5.683594-.679688-.605469-5.722656-3.136719-11.066406-7.183593-15.15625l-39.324219-39.449219v-73.046875l58.53125-21.332031c13.203125-4.871094 20.046875-19.445313 15.359375-32.71875-.15625-.429687-.34375-.84375-.5625-1.246094-5.253906-12.605469-19.5-18.839843-32.324219-14.148437l-50.089844 18.246094c-4.664062 1.695312-9.589843 2.5625-14.550781 2.558593h-10.496094c-2.851562 0-5.515625 1.425781-7.097656 3.796875l-9.96875 14.976563-9.96875-14.949219c-1.574219-2.382812-4.242188-3.816406-7.097656-3.824219h-10.753906c-4.996094.007813-9.953126-.855469-14.648438-2.558593l-49.691406-18.175782c-12.816406-4.679687-27.050782 1.539063-32.324219 14.121094-.226563.410156-.417969.839844-.570313 1.28125-4.6875 13.269531 2.152344 27.84375 15.359376 32.71875l58.496093 21.339844v67.183594l-45.226562 45.226562c-4.203125 4.238281-6.773438 9.828125-7.253907 15.777344-44.648437 5.699218-152.320312 24.175781-152.320312 70.554687v110.933594c0 4.710937 3.820312 8.53125 8.535156 8.53125 4.710938 0 8.53125-3.820313 8.53125-8.53125v-81.878906c20.480469 16.171875 57.726563 28.375 102.398438 36.414062v105.195313c0 4.714844 3.824218 8.535156 8.535156 8.535156s8.535156-3.820312 8.535156-8.535156v-102.398438c39.558594 5.757813 79.488282 8.609375 119.464844 8.535156 37.097656.046876 74.160156-2.394531 110.933594-7.304687v101.167969c0 4.714844 3.820312 8.535156 8.53125 8.535156 4.714844 0 8.535156-3.820312 8.535156-8.535156v-103.738282c48.445312-7.976562 89.164062-20.703124 110.933594-37.871093v81.878906c0 4.710937 3.820312 8.53125 8.53125 8.53125 4.714844 0 8.535156-3.820313 8.535156-8.53125v-110.933594c0-48.058593-116.90625-66.117187-152.609375-70.496093zm-202.683594 16.734374c.855469 1.265626 1.824219 2.449219 2.890625 3.542969.265625.261719.550782.503907.855469.726563 10.039063 9.386718 25.730469 9.066406 35.378906-.726563l7.96875-7.960937 7.074219-.460938c.503906 0 .992188 0 2.210938-.09375 7.152343-.347656 14.445312-.605468 21.886718-.777344h2.792969c6.535156-.144531 13.113281-.222656 19.941406-.222656 1.253907 0 2.558594 0 3.8125.050782 6.4375 0 12.894531.121093 19.472657.308593 2.964843.074219 5.976562.246094 8.988281.359375 4.011719.144532 8.003906.289063 12.046875.484375l8.3125 8.3125c10.148437 9.644531 26.074218 9.644531 36.222656 0 1.289062-1.296875 2.433594-2.726562 3.414062-4.265625 2.414063.28125 4.855469.542969 7.230469.851563 75.433594 9.984375 103.59375 27.714843 103.59375 36.566406 0 14.890625-70.339843 42.664063-204.800781 42.664063s-204.800781-27.773438-204.800781-42.664063c0-9.132813 28.878906-26.871094 105.507812-36.695313zm65.007813-22.355468 31.339844-31.34375 31.105468 31.148437c-21.804687-.667969-42.835937-.488281-62.445312.210938zm-50.050782 1.832031 45.398438-45.394531c3.066406-3.207032 4.789062-7.46875 4.804688-11.90625v-67.15625c.023437-7.183594-4.476563-13.605469-11.238282-16.035156l-58.453125-21.332032c-4.15625-1.496094-6.484375-5.914062-5.367187-10.1875.117187-.257812.222656-.511718.324218-.785156.753907-2.128906 2.328126-3.867188 4.371094-4.828125 2.042969-.960937 4.386719-1.066406 6.507813-.292969l49.671875 18.183594c6.566406 2.382812 13.496094 3.59375 20.480468 3.585938h6.1875l14.507813 21.800781c1.671875 2.238281 4.304687 3.554687 7.097656 3.554687 2.796875 0 5.425781-1.316406 7.101563-3.554687l14.574218-21.769531h5.972657c6.964843.023437 13.878906-1.191407 20.421875-3.582032l50.089844-18.269531c2.121093-.773437 4.464843-.667969 6.507812.292969 2.042969.960937 3.617188 2.699218 4.371094 4.828125.09375.261719.199218.515625.324218.765625 1.117188 4.273437-1.210937 8.695312-5.367187 10.1875l-58.429687 21.335937c-6.808594 2.382813-11.371094 8.800781-11.390626 16.015625v73.046875c.027344 4.519531 1.808594 8.847657 4.96875 12.082031l39.335938 39.425782c3.285156 3.324218 3.285156 8.671875 0 11.996094-3.375 3.246093-8.714844 3.246093-12.089844 0l-60.332031-60.332032c-1.597656-1.589844-3.761719-2.488281-6.015625-2.488281h-5.886719c-2.265625 0-4.433593.898437-6.035156 2.5l-60.371094 60.371094c-3.320312 3.253906-8.628906 3.253906-11.949219 0-.183593-.1875-.375-.363281-.578124-.527344-2.828126-3.378906-2.617188-8.359375.484374-11.488281zm84.335938 134.019531c-148.035156 0-238.933594-34.792968-238.933594-59.734375 0-6.503906 6.023438-13.652343 17.605469-20.789062-.289063 1.222656-.46875 2.46875-.539063 3.722656 0 39.253906 111.617188 59.730469 221.867188 59.730469s221.867188-20.476563 221.867188-59.730469c-.066407-1.21875-.238282-2.429687-.511719-3.621094 11.605469 7.085938 17.578125 14.261719 17.578125 20.6875 0 24.941407-90.898438 59.734375-238.933594 59.734375zm0 0"/><path d="m256 68.265625c18.851562 0 34.132812-15.28125 34.132812-34.132813 0-18.851562-15.28125-34.132812-34.132812-34.132812s-34.132812 15.28125-34.132812 34.132812c0 18.851563 15.28125 34.132813 34.132812 34.132813zm0-51.199219c9.425781 0 17.066406 7.640625 17.066406 17.066406 0 9.425782-7.640625 17.066407-17.066406 17.066407s-17.066406-7.640625-17.066406-17.066407c0-9.425781 7.640625-17.066406 17.066406-17.066406zm0 0"/><path d="m153.601562 187.734375v-42.667969c0-4.710937-3.820312-8.53125-8.535156-8.53125-4.710937 0-8.53125 3.820313-8.53125 8.53125v42.667969c0 4.710937 3.820313 8.53125 8.53125 8.53125 4.714844 0 8.535156-3.820313 8.535156-8.53125zm0 0"/><path d="m187.734375 162.132812v-8.53125c0-4.714843-3.820313-8.535156-8.535156-8.535156-4.710938 0-8.53125 3.820313-8.53125 8.535156v8.53125c0 4.714844 3.820312 8.535157 8.53125 8.535157 4.714843 0 8.535156-3.820313 8.535156-8.535157zm0 0"/><path d="m221.867188 332.800781c4.710937 0 8.53125-3.820312 8.53125-8.535156v-25.597656c0-4.714844-3.820313-8.535157-8.53125-8.535157-4.714844 0-8.535157 3.820313-8.535157 8.535157v25.597656c0 4.714844 3.820313 8.535156 8.535157 8.535156zm0 0"/><path d="m145.066406 332.800781c4.714844 0 8.535156-3.820312 8.535156-8.535156v-17.066406c0-4.710938-3.820312-8.53125-8.535156-8.53125-4.710937 0-8.53125 3.820312-8.53125 8.53125v17.066406c0 4.714844 3.820313 8.535156 8.53125 8.535156zm0 0"/><path d="m366.933594 136.535156c-4.714844 0-8.535156 3.820313-8.535156 8.53125v42.667969c0 4.710937 3.820312 8.53125 8.535156 8.53125 4.710937 0 8.53125-3.820313 8.53125-8.53125v-42.667969c0-4.710937-3.820313-8.53125-8.53125-8.53125zm0 0"/><path d="m324.265625 153.601562v8.53125c0 4.714844 3.820313 8.535157 8.535156 8.535157 4.710938 0 8.53125-3.820313 8.53125-8.535157v-8.53125c0-4.714843-3.820312-8.535156-8.53125-8.535156-4.714843 0-8.535156 3.820313-8.535156 8.535156zm0 0"/><path d="m290.132812 332.800781c4.714844 0 8.535157-3.820312 8.535157-8.535156v-25.597656c0-4.714844-3.820313-8.535157-8.535157-8.535157-4.710937 0-8.53125 3.820313-8.53125 8.535157v25.597656c0 4.714844 3.820313 8.535156 8.53125 8.535156zm0 0"/><path d="m366.933594 332.800781c4.710937 0 8.53125-3.820312 8.53125-8.535156v-17.066406c0-4.710938-3.820313-8.53125-8.53125-8.53125-4.714844 0-8.535156 3.820312-8.535156 8.53125v17.066406c0 4.714844 3.820312 8.535156 8.535156 8.535156zm0 0"/></svg>