<?xml version="1.0" encoding="iso-8859-1"?>
<!-- Generator: Adobe Illustrator 19.0.0, SVG Export Plug-In . SVG Version: 6.00 Build 0)  -->
<svg version="1.1" id="Capa_1" xmlns="http://www.w3.org/2000/svg" xmlns:xlink="http://www.w3.org/1999/xlink" x="0px" y="0px"
	 viewBox="0 0 512 512" style="enable-background:new 0 0 512 512;" xml:space="preserve">
<circle style="fill:#44C868;" cx="256.005" cy="256.005" r="248.493"/>
<circle style="fill:#4CE166;" cx="256.005" cy="256.005" r="225.076"/>
<path style="fill:#FFDB56;" d="M255.998,7.503L256,255.999L418.867,68.314C375.251,30.435,318.304,7.503,256,7.503
	C255.999,7.503,255.999,7.503,255.998,7.503z"/>
<path style="fill:#FFBB24;" d="M256,30.919c56.434,0,108.014,20.771,147.519,55.082l15.347-17.685
	C375.251,30.435,318.304,7.503,256,7.503c-0.001,0-0.001,0-0.002,0v23.416C255.999,30.919,255.999,30.919,256,30.919z"/>
<path style="fill:#475D63;" d="M437.019,74.981C388.667,26.629,324.38,0,256,0S123.333,26.629,74.981,74.981S0,187.62,0,256
	S26.629,388.667,74.981,437.02s112.638,74.98,181.019,74.98s132.667-26.629,181.019-74.98S512,324.38,512,256
	S485.37,123.334,437.019,74.981z M496.868,248.498h-35.281c-2.028-56.246-26.736-106.802-65.24-142.784l23.184-26.717
	c2.326,2.153,4.625,4.34,6.879,6.594C470.154,129.335,494.998,186.938,496.868,248.498z M395.967,248.498H354.7
	c-1.817-24.124-12.321-45.859-28.38-62.086l27.034-31.153C378.055,179.137,394.031,211.985,395.967,248.498z M275.51,233.517
	c1.42,1.232,3.171,1.836,4.914,1.836c2.099,0,4.186-0.876,5.67-2.586l30.352-34.976c12.924,13.416,21.435,31.098,23.181,50.707
	h-46.346c-4.144,0-7.502,3.359-7.502,7.502c0,4.143,3.358,7.502,7.502,7.502h46.346c-3.589,40.328-35.796,72.534-76.124,76.123
	v-46.346c0-4.143-3.358-7.502-7.502-7.502c-4.144,0-7.502,3.359-7.502,7.502v46.346c-40.328-3.59-72.534-35.796-76.124-76.123
	h46.346c4.144,0,7.502-3.359,7.502-7.502c0-4.143-3.358-7.502-7.502-7.502h-46.346c3.59-40.328,35.795-72.534,76.124-76.123v46.346
	c0,4.143,3.358,7.502,7.502,7.502c4.144,0,7.502-3.359,7.502-7.502v-46.346c15.45,1.375,29.702,6.949,41.617,15.574l-30.359,34.985
	C272.046,226.064,272.381,230.801,275.51,233.517z M248.498,157.301c-48.611,3.66-87.539,42.586-91.199,91.198h-41.267
	c3.781-71.33,61.135-128.685,132.465-132.465v41.267H248.498z M157.299,263.503c3.66,48.611,42.586,87.538,91.199,91.198v41.267
	c-71.33-3.78-128.685-61.135-132.465-132.465H157.299z M263.502,354.7c48.611-3.66,87.538-42.586,91.199-91.198h41.267
	c-3.781,71.33-61.135,128.685-132.465,132.465V354.7H263.502z M314.994,176.568c-14.602-10.873-32.291-17.822-51.493-19.268v-41.267
	c29.501,1.563,56.608,12.292,78.527,29.382L314.994,176.568z M263.502,101.011V65.429c42.151,1.639,80.831,17.018,111.682,41.779
	l-23.311,26.862C327.301,114.706,296.756,102.603,263.502,101.011z M263.502,50.414V15.133
	c53.364,1.621,103.75,20.507,144.717,54.005l-23.2,26.735C351.523,68.831,309.408,52.069,263.502,50.414z M248.498,101.011
	c-79.605,3.809-143.678,67.882-147.487,147.487H65.427c3.858-99.215,83.856-179.212,183.071-183.07L248.498,101.011L248.498,101.011
	z M101.011,263.503c3.808,79.605,67.881,143.678,147.487,147.487v35.583c-99.215-3.858-179.212-83.855-183.071-183.071H101.011z
	 M263.502,410.989c79.605-3.808,143.678-67.882,147.487-147.487h35.583c-3.858,99.216-83.856,179.211-183.071,183.071V410.989z
	 M410.988,248.498c-1.963-41.029-19.933-77.932-47.79-104.586l23.312-26.865c35.343,33.216,58.049,79.72,60.061,131.451
	L410.988,248.498L410.988,248.498z M85.59,85.591c43.745-43.745,101.347-68.588,162.907-70.458v35.281
	c-107.489,3.873-194.21,90.595-198.084,198.084H15.131C17.002,186.938,41.845,129.335,85.59,85.591z M15.131,263.503h35.281
	c3.874,107.49,90.595,194.211,198.085,198.085v35.28c-61.56-1.871-119.162-26.714-162.907-70.459
	C41.845,382.665,17.002,325.062,15.131,263.503z M426.409,426.409c-43.745,43.745-101.347,68.588-162.907,70.459v-35.28
	c107.49-3.874,194.211-90.595,198.085-198.085h35.281C494.998,325.062,470.154,382.665,426.409,426.409z"/>
<g>
	<path style="fill:#FF4A4A;" d="M98.863,105.609c-16.292,0-29.546,13.254-29.546,29.546s13.254,29.546,29.546,29.546
		c16.291,0,29.545-13.254,29.545-29.546S115.154,105.609,98.863,105.609z"/>
	<path style="fill:#FF4A4A;" d="M142.949,319.479c-16.292,0-29.546,13.254-29.546,29.546c0,16.292,13.254,29.546,29.546,29.546
		c16.291,0,29.545-13.254,29.545-29.546C172.494,332.733,159.24,319.479,142.949,319.479z"/>
	<path style="fill:#FF4A4A;" d="M432.192,399.885c-16.292,0-29.546,13.254-29.546,29.546s13.254,29.546,29.546,29.546
		c16.292,0,29.546-13.254,29.546-29.546S448.484,399.885,432.192,399.885z"/>
	<path style="fill:#FF4A4A;" d="M403.671,226.844c-16.292,0-29.546,13.254-29.546,29.546c0,16.292,13.254,29.546,29.546,29.546
		c16.292,0,29.546-13.254,29.546-29.546C433.217,240.098,419.963,226.844,403.671,226.844z"/>
</g>
<path style="fill:#334347;" d="M256,211.217c-24.693,0-44.783,20.089-44.783,44.783s20.09,44.782,44.783,44.782
	s44.783-20.089,44.783-44.782S280.692,211.217,256,211.217z"/>
<g>
</g>
<g>
</g>
<g>
</g>
<g>
</g>
<g>
</g>
<g>
</g>
<g>
</g>
<g>
</g>
<g>
</g>
<g>
</g>
<g>
</g>
<g>
</g>
<g>
</g>
<g>
</g>
<g>
</g>
</svg>
